<?xml version="1.0" standalone="no"?><!DOCTYPE svg PUBLIC "-//W3C//DTD SVG 1.1//EN" "http://www.w3.org/Graphics/SVG/1.1/DTD/svg11.dtd"><svg t="1725695434464" class="icon" viewBox="0 0 1024 1024" version="1.1" xmlns="http://www.w3.org/2000/svg" p-id="6137" xmlns:xlink="http://www.w3.org/1999/xlink" width="200" height="200"><path d="M512 64c247.424 0 448 200.576 448 448S759.424 960 512 960 64 759.424 64 512 264.576 64 512 64zM212.693 246.634C150.045 317.244 112 410.179 112 512c0 220.914 179.086 400 400 400 101.82 0 194.755-38.045 265.366-100.693zM512 112c-101.82 0-194.755 38.045-265.366 100.693l564.672 564.672C873.956 706.758 912 613.822 912 512c0-220.914-179.086-400-400-400z" fill="#d81e06" p-id="6138"></path></svg>