<?xml version="1.0" standalone="no"?><!DOCTYPE svg PUBLIC "-//W3C//DTD SVG 1.1//EN" "http://www.w3.org/Graphics/SVG/1.1/DTD/svg11.dtd"><svg t="1725692662299" class="icon" viewBox="0 0 1024 1024" version="1.1" xmlns="http://www.w3.org/2000/svg" p-id="1471" xmlns:xlink="http://www.w3.org/1999/xlink" width="200" height="200"><path d="M639.190573 394.65801a244.656387 244.656387 0 0 0-24.931018-21.523779 49.280312 49.280312 0 0 0-71.967537 67.147541 55.762376 55.762376 0 0 0 12.133095 10.554131 173.104366 173.104366 0 0 1 13.462749 11.883785l4.072067 4.072067a138.200941 138.200941 0 0 1-15.207921 190.140561l-218.063302 217.980198a131.30336 131.30336 0 0 1-185.320564 0l-4.072067-4.072066a131.30336 131.30336 0 0 1 0-185.320565l96.399935-96.399935a53.601688 53.601688 0 0 0-63.324785-86.344425l-0.99724 0.997241a57.258237 57.258237 0 0 0-10.221718 9.473787L70.929576 606.987177a242.578802 242.578802 0 0 0 0 342.302873l4.072067 4.072067a242.911216 242.911216 0 0 0 342.302873 0l218.146404-218.146405a236.512255 236.512255 0 0 0 8.31034-336.734946z m314.380133-319.94806L949.49864 70.637883a242.661906 242.661906 0 0 0-342.302873 0L389.215569 288.867392a221.47054 221.47054 0 0 0-5.15241 324.10323l3.988962 3.988962c4.238273 4.238273 8.80896 8.310339 13.296543 12.133096a46.454796 46.454796 0 0 0 11.385165 9.224476 46.5379 46.5379 0 0 0 69.640643-40.388248 44.127901 44.127901 0 0 0-4.65379-20.194125 104.959584 104.959584 0 0 0-25.595845-30.249634l-3.988963-3.988963a122.411297 122.411297 0 0 1 19.446194-176.594709L685.811576 148.755072a131.137153 131.137153 0 0 1 185.154358 0l4.072066 3.988963a131.05405 131.05405 0 0 1 0 185.320565l-95.901314 96.399935a53.103068 53.103068 0 0 0 59.418925 87.923389l1.495861-1.329654a58.172375 58.172375 0 0 0 12.133095-11.135855l101.219932-93.491316a242.412595 242.412595 0 0 0 0.083104-341.721149z" fill="#1890FF" p-id="1472"></path></svg>