<?xml version="1.0" standalone="no"?><!DOCTYPE svg PUBLIC "-//W3C//DTD SVG 1.1//EN" "http://www.w3.org/Graphics/SVG/1.1/DTD/svg11.dtd"><svg t="1725699080387" class="icon" viewBox="0 0 1024 1024" version="1.1" xmlns="http://www.w3.org/2000/svg" p-id="28212" xmlns:xlink="http://www.w3.org/1999/xlink" width="200" height="200"><path d="M929.310118 784.263529a60.235294 60.235294 0 0 1 42.405647 103.062589l-120.470589 119.265882a60.235294 60.235294 0 0 1-89.810823-79.992471l5.059765-5.662117 16.323764-16.203294h-154.684235a60.235294 60.235294 0 0 1-59.813647-53.187765l-0.421647-7.047529a60.235294 60.235294 0 0 1 53.248-59.813648l6.987294-0.421647h301.176471zM803.117176 0A160.647529 160.647529 0 0 1 963.764706 160.647529V421.647059a60.235294 60.235294 0 0 1-120.470588 0V182.211765a60.235294 60.235294 0 0 0-60.235294-60.235294H181.308235a60.235294 60.235294 0 0 0-59.813647 53.248l-0.421647 6.987294v602.051764a60.235294 60.235294 0 0 0 53.187765 59.873883l7.047529 0.361412h240.941177a59.632941 59.632941 0 0 1 0 119.265882H160.647529A160.647529 160.647529 0 0 1 0 803.117176V160.647529A160.647529 160.647529 0 0 1 160.647529 0h642.469647zM361.411765 602.352941a60.235294 60.235294 0 1 1 0 120.470588 60.235294 60.235294 0 0 1 0-120.470588z m0-361.411765a60.235294 60.235294 0 0 1 60.235294 60.235295v180.705882a60.235294 60.235294 0 1 1-120.470588 0V301.176471a60.235294 60.235294 0 0 1 60.235294-60.235295z m430.20047 260.035765a60.235294 60.235294 0 0 1 4.638118 79.510588l-5.059765 5.662118-16.323764 16.263529L929.551059 602.352941a60.235294 60.235294 0 0 1 59.813647 53.187765l0.421647 7.047529a60.235294 60.235294 0 0 1-53.248 59.813647l-6.987294 0.421647h-301.176471a60.235294 60.235294 0 0 1-42.405647-103.002353l120.470588-119.265882a60.235294 60.235294 0 0 1 85.172706 0.421647z" fill="#1296db" p-id="28213"></path></svg>