<?xml version="1.0" standalone="no"?><!DOCTYPE svg PUBLIC "-//W3C//DTD SVG 1.1//EN" "http://www.w3.org/Graphics/SVG/1.1/DTD/svg11.dtd"><svg t="1725699952916" class="icon" viewBox="0 0 1344 1024" version="1.1" xmlns="http://www.w3.org/2000/svg" p-id="34884" xmlns:xlink="http://www.w3.org/1999/xlink" width="262.5" height="200"><path d="M270.976 438.848a40 40 0 0 0-12.992 29.6l0.224 105.28c0.032 11.2 4.736 21.888 12.992 29.44 241.216 220.8 471.296 291.84 683.744 241.248 150.08-35.744 273.344-126.176 368.704-239.04l2.56-3.392a40 40 0 0 0-12.672-56.768l-20.16-12 34.56-30.848a40 40 0 0 0 4.352-55.104c-92-112.8-213.856-206.4-364.032-246.048-215.936-56.96-450.784 12.096-697.28 237.632z m690.848-156.384c111.04 32.64 205.696 100.544 281.088 183.552l2.496 2.784-45.984 41.088-3.136 3.136a40 40 0 0 0 9.344 61.088l25.152 14.944-6.304 6.656c-79.136 81.056-176 144.192-288.096 170.88l-10.112 2.304c-175.712 38.016-367.744-20.096-576.832-203.072l-11.264-9.984-0.16-69.792 11.264-9.92c217.824-190.464 417.056-245.44 598.592-197.536l13.952 3.872z" fill="#5AC2EE" p-id="34885"></path><path d="M39.904 252.8c99.072-7.04 177.92 32.416 236.352 101.088 31.68 37.184 50.88 74.24 60.16 100.384a40 40 0 0 1-73.92 30.432l-3.2-8A283.136 283.136 0 0 0 215.36 405.76c-24.32-28.608-52.544-49.888-85.376-62.048l-6.72-2.336 4.8 8.256c17.312 30.496 31.36 60.608 41.088 89.792l3.872 12.448c7.04 24 10.816 46.848 10.816 68.576 0 21.696-3.776 44.576-10.816 68.576-8.448 28.896-21.376 58.816-37.76 89.184l-7.168 13.056-4.992 8.448 6.944-2.336c30.336-11.072 56.672-29.824 79.616-54.848l5.664-6.4a277.792 277.792 0 0 0 35.168-52.032l4.16-8.256c3.04-6.304 4.992-11.008 5.952-13.696a40 40 0 0 1 75.36 26.784c-9.184 25.92-28.352 62.592-59.936 99.36-58.336 67.904-137.088 106.848-236.096 99.84a40 40 0 0 1-28.64-64.64l6.816-9.088 4.864-6.784 2.752-3.904c11.2-16.064 22.368-33.6 32.768-51.936 16.96-29.888 30.048-58.848 37.76-85.216 4.992-17.152 7.584-32.64 7.584-46.112 0-13.472-2.56-28.992-7.584-46.144-7.712-26.368-20.8-55.328-37.76-85.216a669.056 669.056 0 0 0-32.768-51.904l-7.616-10.72a321.44 321.44 0 0 0-6.816-9.056 40 40 0 0 1 28.64-64.64zM981.28 325.504l67.904 42.272c-59.264 95.168-59.456 214.24 40.768 357.28l7.008 9.792-64.704 47.04c-124.384-171.008-128.288-325.888-55.424-449.056l4.48-7.36zM813.888 33.184a540.8 540.8 0 0 1 76.192-4.96l12.32 0.384c6.496 0.384 12.8 2.336 18.336 5.728 33.152 20.096 56.704 55.296 74.24 100.992 8.512 22.272 15.04 45.76 19.904 69.248l2.24 11.328c1.632 8.768 2.688 15.84 3.296 20.704a40 40 0 1 1-79.424 9.6l-0.704-5.024a391.392 391.392 0 0 0-3.712-20.32 374.24 374.24 0 0 0-16.32-56.928c-8.704-22.72-18.88-40.448-29.6-51.744l-4.096-4-6.08 0.032c-13.12 0.16-28.512 1.056-45.632 2.976l-10.496 1.28c-42.72 5.664-84.8 16.544-123.744 33.792-81.12 35.904-140.16 95.104-170.112 183.968a40 40 0 1 1-75.808-25.568c37.568-111.424 112.96-187.04 213.536-231.552 46.496-20.576 95.84-33.376 145.664-39.936z" fill="#5AC2EE" p-id="34886"></path><path d="M600.192 117.216a40 40 0 0 1 52.672 20.608l5.12 12.16c3.744 9.184 7.488 18.88 11.008 28.64 2.432 6.72 4.672 13.312 6.656 19.648 5.888 18.592 9.6 34.432 10.592 47.936a40 40 0 0 1-79.296 9.888l-0.48-4.064c-0.448-5.92-2.944-16.512-7.072-29.632-1.696-5.312-3.584-10.88-5.664-16.672l-4.8-12.896-7.616-18.88a317.12 317.12 0 0 0-1.728-4.032 40 40 0 0 1 20.608-52.704zM701.248 63.456a40 40 0 0 1 51.264 23.936l7.072 19.936c5.28 15.104 10.56 30.72 15.456 45.984l4.896 15.424 6.176 20.544c2.848 9.76 5.248 18.656 7.168 26.624a40 40 0 1 1-77.76 18.816l-3.2-12.32c-1.184-4.416-2.528-9.152-4-14.144l-4.8-15.776c-1.44-4.736-2.976-9.6-4.608-14.592l-7.296-22.144-12.64-36.416-1.664-4.608a40 40 0 0 1 23.936-51.264zM794.56 39.52a40 40 0 0 1 52.64 20.768l9.696 23.04a1850.24 1850.24 0 0 1 29.44 76c7.04 19.648 12.704 37.248 16.8 52.416a40 40 0 1 1-77.216 20.896 644.8 644.8 0 0 0-14.912-46.464 1681.92 1681.92 0 0 0-21.12-55.392l-12.384-29.984a971.648 971.648 0 0 0-3.68-8.64 40 40 0 0 1 20.768-52.64zM692.32 769.536a40 40 0 0 1 41.504 33.92l0.448 5.6 0.064 1.12c0.256 9.92-0.096 22.496-1.472 36.896a308.16 308.16 0 0 1-9.12 51.2l-3.072 10.304 1.92-0.736c18.816-7.712 37.344-17.28 55.264-28.928l10.72-7.232a331.776 331.776 0 0 0 76.512-75.264 40 40 0 0 1 64.48 47.36 411.712 411.712 0 0 1-94.912 93.312 417.44 417.44 0 0 1-137.696 63.296c-28.512 7.264-51.2 10.144-65.28 10.56-39.36 1.216-55.872-48.48-25.92-71.456l3.392-2.368c15.328-9.632 26.976-27.072 34.816-51.2 7.264-22.272 10.176-46.08 10.432-65.6l-0.064-12.96a40 40 0 0 1 37.984-37.824zM843.072 313.472a40 40 0 0 1 45.28 65.792l-3.584 2.496c-0.896 0.544-4.16 3.2-7.648 7.424-11.776 14.4-13.504 31.168 4.032 59.648a40 40 0 0 1-68.064 42.016c-36.16-58.56-30.592-112.448 2.176-152.384 9.824-11.968 19.84-20.128 27.808-24.96zM813.088 555.584a40 40 0 1 1 68.064 42.016c-17.536 28.48-15.808 45.28-4.032 59.648 2.784 3.36 5.44 5.76 6.848 6.848l0.8 0.576a40 40 0 0 1-41.696 68.288 114.112 114.112 0 0 1-27.808-24.96c-32.768-39.968-38.304-93.856-2.176-152.416zM697.728 436.224a40 40 0 0 1 61.92 50.624c-21.856 26.752-21.792 43.936-10.912 60.032l2.976 4c0.864 1.088 1.6 1.92 2.112 2.4l0.544 0.512a40 40 0 0 1-50.304 62.208 112.384 112.384 0 0 1-21.664-24.352c-29.76-44.16-29.952-100.032 15.328-155.424zM1127.584 414.496a50.816 50.816 0 1 0 0 101.664 50.816 50.816 0 0 0 0-101.664z m0 21.696a29.184 29.184 0 1 1-0.032 58.368 29.184 29.184 0 0 1 0.032-58.368z" fill="#5AC2EE" p-id="34887"></path></svg>