<?xml version="1.0" standalone="no"?><!DOCTYPE svg PUBLIC "-//W3C//DTD SVG 1.1//EN" "http://www.w3.org/Graphics/SVG/1.1/DTD/svg11.dtd"><svg t="1725699759613" class="icon" viewBox="0 0 1024 1024" version="1.1" xmlns="http://www.w3.org/2000/svg" p-id="32192" xmlns:xlink="http://www.w3.org/1999/xlink" width="200" height="200"><path d="M889.225457 968.43038 134.77352 968.43038c-30.573319 0-55.751768-25.178449-55.751768-55.751768L79.021751 124.954897c0-30.573319 25.178449-55.751768 55.751768-55.751768l754.451938 0c30.573319 0 55.751768 25.178449 55.751768 55.751768l0 787.722692C944.978249 943.251931 919.7998 968.43038 889.225457 968.43038zM134.77352 116.861568c-4.496407 0-8.093329 3.596921-8.093329 8.093329l0 787.722692c0 4.496407 3.596921 8.093329 8.093329 8.093329l754.451938 0c4.496407 0 8.093329-3.596921 8.093329-8.093329L897.318786 124.954897c0-4.496407-3.596921-8.093329-8.093329-8.093329C889.225457 116.861568 134.77352 116.861568 134.77352 116.861568z" fill="#1296db" p-id="32193"></path><path d="M400.046209 448.676789 400.046209 232.861512c0-18.884093-15.287171-34.170241-34.170241-34.170241-18.884093 0-34.170241 15.287171-34.170241 34.170241l0 214.915791c-34.170241 13.488199-57.550741 46.759977-57.550741 85.426625l0 85.426625c0 38.666648 24.278963 71.938426 57.550741 85.426625l0 99.81431c0 18.884093 15.287171 34.170241 34.170241 34.170241s34.170241-15.287171 34.170241-34.170241l0-98.914824c34.170241-13.488199 57.550741-46.759977 57.550741-85.426625l0-85.426625C457.596949 495.436766 434.216449 462.164988 400.046209 448.676789zM409.937486 619.530039c0 24.278963-19.782555 44.062542-44.062542 44.062542s-44.062542-19.782555-44.062542-44.062542l0-85.426625c0-24.278963 19.782555-44.062542 44.062542-44.062542s44.062542 19.782555 44.062542 44.062542L409.937486 619.530039z" fill="#1296db" p-id="32194"></path><path d="M692.295296 303.001989l0-69.240991c0-18.884093-15.287171-34.170241-34.170241-34.170241-18.884093 0-34.170241 15.287171-34.170241 34.170241l0 69.240991c-34.170241 13.488199-57.550741 46.759977-57.550741 85.426625l0 85.426625c0 38.666648 24.278963 71.938426 57.550741 85.426625l0 245.48911c0 18.884093 15.287171 34.170241 34.170241 34.170241 18.884093 0 34.170241-15.287171 34.170241-34.170241L692.295296 559.281863c34.170241-13.488199 57.550741-46.759977 57.550741-85.426625l0-85.426625C750.744499 349.760942 726.465536 316.490188 692.295296 303.001989zM702.186574 473.855238c0 10.790764-3.596921 19.782555-9.891278 27.875884-8.093329 9.891278-20.682042 17.08512-34.170241 17.08512-14.387685 0-26.077935-6.294356-34.170241-17.08512-6.294356-7.193843-9.891278-17.08512-9.891278-27.875884l0-85.426625c0-10.790764 3.596921-19.782555 9.891278-27.875884 8.093329-9.891278 20.682042-17.08512 34.170241-17.08512 14.387685 0 26.077935 6.294356 34.170241 17.08512 6.294356 7.193843 9.891278 17.08512 9.891278 27.875884L702.186574 473.855238z" fill="#1296db" p-id="32195"></path></svg>