<?xml version="1.0" standalone="no"?><!DOCTYPE svg PUBLIC "-//W3C//DTD SVG 1.1//EN" "http://www.w3.org/Graphics/SVG/1.1/DTD/svg11.dtd"><svg t="1725699302861" class="icon" viewBox="0 0 1024 1024" version="1.1" xmlns="http://www.w3.org/2000/svg" p-id="29334" xmlns:xlink="http://www.w3.org/1999/xlink" width="200" height="200"><path d="M418.304 136.256c50.88 0 92.608 38.976 97.088 88.704l0.384 8.832v72.512l8-2.752 9.088-2.24 9.28-1.28 9.408-0.512h2.688c38.144 0 71.936 22.144 87.872 55.296l3.584 8.576 2.176-1.024c6.208-2.752 12.672-4.864 19.328-6.272l10.048-1.6 10.24-0.512h2.688c37.12 0 70.4 21.056 86.848 53.312l0.768 1.664 3.2-1.792c6.592-3.2 13.504-5.568 20.608-7.232l10.752-1.792 11.008-0.64h2.688c50.88 0 92.608 39.04 97.088 88.704l0.384 8.96v270.72a237.632 237.632 0 0 1-224.832 237.44l-12.608 0.32H497.6c-71.168 0-138.304-31.936-183.232-86.528l-8.704-11.2-184.384-253.44a96.32 96.32 0 0 1-0.192-113.088l6.016-7.488 8.576-9.664a93.696 93.696 0 0 1 132.352-7.808l37.952 36.48a7.168 7.168 0 0 0 11.904-3.392l0.256-1.856V233.792c0-50.88 38.912-92.672 88.576-97.152l8.896-0.384h2.688z m0 55.808h-2.688a41.728 41.728 0 0 0-41.216 35.584l-0.448 6.144v311.872a63.104 63.104 0 0 1-100.672 50.56l-6.016-5.12-35.2-33.92a37.952 37.952 0 0 0-50.24-2.112l-4.48 4.224-8.576 9.664a40.448 40.448 0 0 0-6.016 44.608l3.584 6.016 184.448 253.44a181.568 181.568 0 0 0 134.4 74.368l12.416 0.448h188.48a181.76 181.76 0 0 0 181.312-170.88l0.32-11.072V495.104a41.728 41.728 0 0 0-35.52-41.28l-6.144-0.448h-2.688a41.728 41.728 0 0 0-41.216 35.584l-0.448 6.144v96.64c0 31.168-43.84 33.088-49.28 5.824l-0.64-5.824v-140.16a41.728 41.728 0 0 0-35.456-41.344l-6.144-0.448h-2.752a41.728 41.728 0 0 0-41.216 35.584l-0.448 6.208v107.52c0 31.168-43.776 33.088-49.28 5.76l-0.576-5.76v-161.92a41.728 41.728 0 0 0-35.52-41.344l-6.144-0.448h-2.688a41.728 41.728 0 0 0-41.28 35.584l-0.448 6.144v129.28c0 31.168-43.776 33.152-49.28 5.824l-0.512-5.76V233.728a41.728 41.728 0 0 0-41.728-41.728zM414.08 20.928a192.64 192.64 0 0 1 192.64 192.64 28.16 28.16 0 0 1-56.32 0 136.32 136.32 0 0 0-272.64 0 28.16 28.16 0 1 1-56.32 0 192.64 192.64 0 0 1 192.64-192.64z" fill="#3c9cff" p-id="29335"></path></svg>