<?xml version="1.0" standalone="no"?><!DOCTYPE svg PUBLIC "-//W3C//DTD SVG 1.1//EN" "http://www.w3.org/Graphics/SVG/1.1/DTD/svg11.dtd"><svg t="1725699672584" class="icon" viewBox="0 0 1024 1024" version="1.1" xmlns="http://www.w3.org/2000/svg" p-id="31083" xmlns:xlink="http://www.w3.org/1999/xlink" width="200" height="200"><path d="M160 723.2C211.2 723.2 256 768 256 819.2s-44.8 96-96 96S64 876.8 64 819.2 108.8 723.2 160 723.2M160 659.2c-89.6 0-160 70.4-160 160s70.4 160 160 160S320 908.8 320 819.2 249.6 659.2 160 659.2L160 659.2z" p-id="31084" fill="#ff6a00"></path><path d="M512 108.8c51.2 0 96 44.8 96 96S563.2 300.8 512 300.8 416 256 416 204.8 460.8 108.8 512 108.8M512 44.8c-89.6 0-160 70.4-160 160S422.4 364.8 512 364.8s160-70.4 160-160S601.6 44.8 512 44.8L512 44.8z" p-id="31085" fill="#ff6a00"></path><path d="M864 723.2c51.2 0 96 44.8 96 96s-44.8 96-96 96S768 876.8 768 819.2 812.8 723.2 864 723.2M864 659.2c-89.6 0-160 70.4-160 160s70.4 160 160 160 160-70.4 160-160S953.6 659.2 864 659.2L864 659.2z" p-id="31086" fill="#ff6a00"></path><path d="M563.2 352C582.4 345.6 601.6 332.8 614.4 320l198.4 352c-19.2 6.4-38.4 19.2-57.6 32L563.2 352z" p-id="31087" fill="#ff6a00"></path><path d="M211.2 672 409.6 320c19.2 12.8 32 25.6 57.6 32L262.4 704C249.6 691.2 230.4 678.4 211.2 672z" p-id="31088" fill="#ff6a00"></path><path d="M313.6 857.6C320 844.8 320 832 320 819.2c0-12.8 0-19.2-6.4-32l390.4 0c0 12.8-6.4 19.2-6.4 32 0 12.8 0 19.2 6.4 32L313.6 851.2z" p-id="31089" fill="#ff6a00"></path></svg>