<?xml version="1.0" standalone="no"?><!DOCTYPE svg PUBLIC "-//W3C//DTD SVG 1.1//EN" "http://www.w3.org/Graphics/SVG/1.1/DTD/svg11.dtd"><svg t="1725693726320" class="icon" viewBox="0 0 1024 1024" version="1.1" xmlns="http://www.w3.org/2000/svg" p-id="2478" xmlns:xlink="http://www.w3.org/1999/xlink" width="200" height="200"><path d="M478.956308 557.883077a68.135385 68.135385 0 0 0 48.285538 19.928615 68.135385 68.135385 0 0 0 68.292923-68.214154c0-18.274462-7.089231-35.367385-20.007384-48.285538-23.197538-23.158154-275.849846-196.411077-286.523077-203.815385l-43.874462-30.089846 30.089846 43.874462c7.286154 10.791385 180.578462 263.443692 203.736616 286.601846z m27.490461 408.812308a465.368615 465.368615 0 0 1-330.279384-136.78277A465.92 465.92 0 0 1 39.384615 499.633231 465.368615 465.368615 0 0 1 176.167385 169.353846a33.161846 33.161846 0 0 1 46.985846 0c12.996923 12.996923 12.996923 34.067692 0 46.985846a398.178462 398.178462 0 0 0-85.858462 127.369846c-20.834462 49.388308-31.428923 101.848615-31.428923 155.923693 0 54.075077 10.594462 106.535385 31.468308 155.923692a401.171692 401.171692 0 0 0 85.858461 127.369846 398.178462 398.178462 0 0 0 127.369847 85.858462c49.388308 20.873846 101.809231 31.468308 155.884307 31.468307 54.114462 0 106.535385-10.633846 155.923693-31.507692a401.171692 401.171692 0 0 0 127.369846-85.858461 398.178462 398.178462 0 0 0 85.858461-127.330462c20.873846-49.388308 31.507692-101.848615 31.507693-155.923692a387.387077 387.387077 0 0 0-114.688-276.913231c-65.693538-65.260308-151.748923-105.156923-244.893539-114.294154v58.446769a33.201231 33.201231 0 1 1-66.441846 0V39.384615l33.792 0.551385c123.273846 2.323692 238.513231 50.412308 324.371692 135.601231a453.513846 453.513846 0 0 1 134.301539 324.096 465.368615 465.368615 0 0 1-136.78277 330.279384 465.92 465.92 0 0 1-330.318769 136.78277z" fill="#309FFF" p-id="2479"></path></svg>