<?xml version="1.0" standalone="no"?><!DOCTYPE svg PUBLIC "-//W3C//DTD SVG 1.1//EN" "http://www.w3.org/Graphics/SVG/1.1/DTD/svg11.dtd"><svg t="1725697798856" class="icon" viewBox="0 0 1024 1024" version="1.1" xmlns="http://www.w3.org/2000/svg" p-id="10528" xmlns:xlink="http://www.w3.org/1999/xlink" width="200" height="200"><path d="M0 512C0 229.226667 229.226667 0 512 0s512 229.226667 512 512-229.226667 512-512 512S0 794.773333 0 512z" fill="#FF6700" p-id="10529"></path><path d="M526.592 341.333333H244.672a5.674667 5.674667 0 0 0-5.738667 5.568v333.824c0 3.050667 2.56 5.568 5.738667 5.568h74.005333a5.674667 5.674667 0 0 0 5.738667-5.568V418.730667c0-3.008 2.56-5.504 5.738667-5.504h159.509333c44.842667 0 57.557333 33.941333 57.557333 55.829333v211.669333c0 3.050667 2.56 5.568 5.738667 5.568h73.962667a5.674667 5.674667 0 0 0 5.738666-5.568v-236.8c0-19.562667-2.410667-47.637333-27.882666-72.341333C578.154667 345.792 553.792 341.333333 526.592 341.333333z m252.736 0h-74.005333a5.674667 5.674667 0 0 0-5.738667 5.568v333.824c0 3.050667 2.56 5.568 5.738667 5.568h74.005333a5.674667 5.674667 0 0 0 5.738667-5.568V346.901333a5.696 5.696 0 0 0-5.738667-5.568z m-382.293333 132.970667h77.738666c3.178667 0 5.738667 2.496 5.738667 5.504v200.96a5.696 5.696 0 0 1-5.738667 5.568h-77.738666a5.696 5.696 0 0 1-5.738667-5.568v-200.896c0-3.072 2.56-5.568 5.738667-5.568z" fill="#FFFFFF" p-id="10530"></path></svg>